<?xml version="1.0" encoding="UTF-8" standalone="no"?>
<svg
   xmlns:dc="http://purl.org/dc/elements/1.1/"
   xmlns:cc="http://creativecommons.org/ns#"
   xmlns:rdf="http://www.w3.org/1999/02/22-rdf-syntax-ns#"
   xmlns:svg="http://www.w3.org/2000/svg"
   xmlns="http://www.w3.org/2000/svg"
   xmlns:sodipodi="http://sodipodi.sourceforge.net/DTD/sodipodi-0.dtd"
   xmlns:inkscape="http://www.inkscape.org/namespaces/inkscape"
   id="visual"
   viewBox="0 0 900 600"
   width="900"
   height="600"
   version="1.1"
   sodipodi:docname="background.svg"
   inkscape:version="1.0.2 (e86c870879, 2021-01-15)">
  <metadata
     id="metadata921">
    <rdf:RDF>
      <cc:Work
         rdf:about="">
        <dc:format>image/svg+xml</dc:format>
        <dc:type
           rdf:resource="http://purl.org/dc/dcmitype/StillImage" />
        <dc:title></dc:title>
      </cc:Work>
    </rdf:RDF>
  </metadata>
  <defs
     id="defs919" />
  <sodipodi:namedview
     pagecolor="#ffffff"
     bordercolor="#666666"
     borderopacity="1"
     objecttolerance="10"
     gridtolerance="10"
     guidetolerance="10"
     inkscape:pageopacity="0"
     inkscape:pageshadow="2"
     inkscape:window-width="1280"
     inkscape:window-height="941"
     id="namedview917"
     showgrid="false"
     inkscape:zoom="0.88555556"
     inkscape:cx="450"
     inkscape:cy="335.20408"
     inkscape:window-x="0"
     inkscape:window-y="27"
     inkscape:window-maximized="1"
     inkscape:current-layer="visual" />
  <path
     d="M536 600L437 600L437 567L526 567L526 533L566 533L566 500L664 500L664 467L523 467L523 433L409 433L409 400L560 400L560 367L467 367L467 333L611 333L611 300L637 300L637 267L537 267L537 233L626 233L626 200L550 200L550 167L605 167L605 133L644 133L644 100L507 100L507 67L457 67L457 33L421 33L421 0L900 0L900 33L900 33L900 67L900 67L900 100L900 100L900 133L900 133L900 167L900 167L900 200L900 200L900 233L900 233L900 267L900 267L900 300L900 300L900 333L900 333L900 367L900 367L900 400L900 400L900 433L900 433L900 467L900 467L900 500L900 500L900 533L900 533L900 567L900 567L900 600L900 600Z"
     fill="#0066ff"
     id="path904" />
  <path
     d="M669 600L613 600L613 567L683 567L683 533L535 533L535 500L714 500L714 467L713 467L713 433L567 433L567 400L558 400L558 367L639 367L639 333L627 333L627 300L481 300L481 267L522 267L522 233L667 233L667 200L656 200L656 167L497 167L497 133L540 133L540 100L503 100L503 67L692 67L692 33L575 33L575 0L900 0L900 33L900 33L900 67L900 67L900 100L900 100L900 133L900 133L900 167L900 167L900 200L900 200L900 233L900 233L900 267L900 267L900 300L900 300L900 333L900 333L900 367L900 367L900 400L900 400L900 433L900 433L900 467L900 467L900 500L900 500L900 533L900 533L900 567L900 567L900 600L900 600Z"
     fill="#0056d0"
     id="path906" />
  <path
     d="M528 600L696 600L696 567L730 567L730 533L748 533L748 500L715 500L715 467L567 467L567 433L755 433L755 400L735 400L735 367L545 367L545 333L604 333L604 300L569 300L569 267L686 267L686 233L751 233L751 200L546 200L546 167L694 167L694 133L535 133L535 100L522 100L522 67L623 67L623 33L746 33L746 0L900 0L900 33L900 33L900 67L900 67L900 100L900 100L900 133L900 133L900 167L900 167L900 200L900 200L900 233L900 233L900 267L900 267L900 300L900 300L900 333L900 333L900 367L900 367L900 400L900 400L900 433L900 433L900 467L900 467L900 500L900 500L900 533L900 533L900 567L900 567L900 600L900 600Z"
     fill="#0046a2"
     id="path908" />
  <path
     d="M793 600L779 600L779 567L806 567L806 533L774 533L774 500L757 500L757 467L729 467L729 433L609 433L609 400L602 400L602 367L717 367L717 333L786 333L786 300L782 300L782 267L755 267L755 233L756 233L756 200L727 200L727 167L628 167L628 133L614 133L614 100L668 100L668 67L726 67L726 33L741 33L741 0L900 0L900 33L900 33L900 67L900 67L900 100L900 100L900 133L900 133L900 167L900 167L900 200L900 200L900 233L900 233L900 267L900 267L900 300L900 300L900 333L900 333L900 367L900 367L900 400L900 400L900 433L900 433L900 467L900 467L900 500L900 500L900 533L900 533L900 567L900 567L900 600L900 600Z"
     fill="#003676"
     id="path910" />
  <path
     d="M838 600L832 600L832 567L789 567L789 533L700 533L700 500L809 500L809 467L768 467L768 433L786 433L786 400L769 400L769 367L765 367L765 333L830 333L830 300L822 300L822 267L692 267L692 233L711 233L711 200L790 200L790 167L842 167L842 133L755 133L755 100L744 100L744 67L773 67L773 33L747 33L747 0L900 0L900 33L900 33L900 67L900 67L900 100L900 100L900 133L900 133L900 167L900 167L900 200L900 200L900 233L900 233L900 267L900 267L900 300L900 300L900 333L900 333L900 367L900 367L900 400L900 400L900 433L900 433L900 467L900 467L900 500L900 500L900 533L900 533L900 567L900 567L900 600L900 600Z"
     fill="#00244b"
     id="path912" />
  <path
     d="M827 600L875 600L875 567L750 567L750 533L829 533L829 500L863 500L863 467L870 467L870 433L900 433L900 400L805 400L805 367L800 367L800 333L829 333L829 300L751 300L751 267L760 267L760 233L860 233L860 200L799 200L799 167L778 167L778 133L792 133L792 100L781 100L781 67L887 67L887 33L855 33L855 0L900 0L900 33L900 33L900 67L900 67L900 100L900 100L900 133L900 133L900 167L900 167L900 200L900 200L900 233L900 233L900 267L900 267L900 300L900 300L900 333L900 333L900 367L900 367L900 400L900 400L900 433L900 433L900 467L900 467L900 500L900 500L900 533L900 533L900 567L900 567L900 600L900 600Z"
     fill="#001122"
     id="path914" />
</svg>
